HIERARCHY
ROOT Hips
{
	OFFSET -0.001795 -0.223333 0.028219
	CHANNELS 6 Xposition Yposition Zposition Zrotation Yrotation Xrotation 
	JOINT LeftUpLeg
	{
		OFFSET 0.069520 -0.091406 -0.006815
		CHANNELS 3 Zrotation Yrotation Xrotation
		JOINT LeftLeg
		{
			OFFSET 0.034277 -0.375199 -0.004496
			CHANNELS 3 Zrotation Yrotation Xrotation
			JOINT LeftFoot
			{
				OFFSET -0.013596 -0.397961 -0.043693
				CHANNELS 3 Zrotation Yrotation Xrotation
				JOINT LeftToe
				{
					OFFSET 0.026358 -0.055791 0.119288
					CHANNELS 3 Zrotation Yrotation Xrotation
					End Site
					{
						OFFSET 0.000000 0.000000 0.000000
					}
				}
			}
		}
	}
	JOINT RightUpLeg
	{
		OFFSET -0.067670 -0.090522 -0.004320
		CHANNELS 3 Zrotation Yrotation Xrotation
		JOINT RightLeg
		{
			OFFSET -0.038290 -0.382569 -0.008850
			CHANNELS 3 Zrotation Yrotation Xrotation
			JOINT RightFoot
			{
				OFFSET 0.015774 -0.398415 -0.042312
				CHANNELS 3 Zrotation Yrotation Xrotation
				JOINT RightToe
				{
					OFFSET -0.025372 -0.048144 0.123348
					CHANNELS 3 Zrotation Yrotation Xrotation
					End Site
					{
						OFFSET 0.000000 0.000000 0.000000
					}
				}
			}
		}
	}
	JOINT Spine
	{
		OFFSET -0.002533 0.108963 -0.026696
		CHANNELS 3 Zrotation Yrotation Xrotation
		JOINT Spine1
		{
			OFFSET 0.005487 0.135180 0.001092
			CHANNELS 3 Zrotation Yrotation Xrotation
			JOINT Spine2
			{
				OFFSET 0.001457 0.052922 0.025425
				CHANNELS 3 Zrotation Yrotation Xrotation
				JOINT Neck
				{
					OFFSET -0.002778 0.213870 -0.042857
					CHANNELS 3 Zrotation Yrotation Xrotation
					JOINT Head
					{
						OFFSET 0.005152 0.064970 0.051349
						CHANNELS 3 Zrotation Yrotation Xrotation
						End Site
						{
							OFFSET 0.000000 0.000000 0.000000
						}
					}
				}
				JOINT LeftShoulder
				{
					OFFSET 0.078845 0.121749 -0.034090
					CHANNELS 3 Zrotation Yrotation Xrotation
					JOINT LeftArm
					{
						OFFSET 0.090977 0.030469 -0.008868
						CHANNELS 3 Zrotation Yrotation Xrotation
						JOINT LeftForeArm
						{
							OFFSET 0.259612 -0.012772 -0.027456
							CHANNELS 3 Zrotation Yrotation Xrotation
							JOINT LeftHand
							{
								OFFSET 0.249234 0.008986 -0.001171
								CHANNELS 3 Zrotation Yrotation Xrotation
								End Site
								{
									OFFSET 0.000000 0.000000 0.000000
								}
							}
						}
					}
				}
				JOINT RightShoulder
				{
					OFFSET -0.081759 0.118833 -0.038615
					CHANNELS 3 Zrotation Yrotation Xrotation
					JOINT RightArm
					{
						OFFSET -0.096012 0.032551 -0.009143
						CHANNELS 3 Zrotation Yrotation Xrotation
						JOINT RightForeArm
						{
							OFFSET -0.253742 -0.013329 -0.021401
							CHANNELS 3 Zrotation Yrotation Xrotation
							JOINT RightHand
							{
								OFFSET -0.255298 0.007772 -0.005559
								CHANNELS 3 Zrotation Yrotation Xrotation
								End Site
								{
									OFFSET 0.000000 0.000000 0.000000
								}
							}
						}
					}
				}
			}
		}
	}
}
MOTION
Frames: 16
Frame Time: 0.050000
0.000000 0.951976 0.000000 -0.625858 -7.428058 -0.854531 6.662714 0.120687 1.564950 0.624233 0.111775 -4.741030 11.788684 21.926148 22.042345 0.000000 0.000000 0.000000 -4.943946 0.003129 3.935637 2.694595 -0.289148 -3.216560 -17.057422 -30.686776 32.538912 0.000000 0.000000 0.000000 -1.799956 -0.108218 5.164424 5.189599 -0.963037 -21.921467 1.178316 4.914141 28.763302 -1.711283 2.504765 -20.013958 0.000000 0.000000 0.000000 -22.418121 -0.824753 -0.685476 -51.889779 -8.915256 -5.040083 -22.940807 -33.611656 9.098578 0.000000 0.000000 0.000000 15.200748 6.520049 2.569108 58.436293 4.578827 -6.289487 10.721886 37.768521 5.600489 0.000000 0.000000 0.000000 
0.000059 0.951226 0.000337 -0.916763 -8.123467 -0.438882 6.718732 0.140536 1.900792 1.030740 0.125957 -5.744146 12.203174 22.373319 22.377524 0.000000 0.000000 0.000000 -4.214409 -0.034307 3.824267 1.842846 -0.247544 -3.906322 -16.644306 -30.350202 32.109278 0.000000 0.000000 0.000000 -1.485862 -0.111384 4.630888 4.374910 -0.749015 -22.159201 2.226943 5.076844 29.291718 -2.600105 3.074512 -20.440280 0.000000 0.000000 0.000000 -22.150763 0.077831 -1.099929 -52.217015 -9.209373 -4.999699 -25.254895 -33.117818 9.769831 0.000000 0.000000 0.000000 13.950605 6.467576 2.493951 60.084988 3.897409 -6.819453 10.262044 39.394036 5.772523 0.000000 0.000000 0.000000 
0.000136 0.951180 0.000435 -0.345778 -7.514191 -0.334124 6.545608 0.088623 0.936429 0.257234 0.137008 -4.622180 11.921574 22.089204 21.932051 0.000000 0.000000 0.000000 -4.660248 0.009252 3.494865 1.624426 -0.229531 -3.485838 -17.143090 -30.811143 32.359550 0.000000 0.000000 0.000000 -1.873975 -0.079523 4.095998 4.879770 -0.867132 -22.111372 1.599060 5.058808 29.555986 -1.914894 2.662816 -20.039445 0.000000 0.000000 0.000000 -22.150999 -0.342187 -0.939629 -51.627203 -9.315430 -4.951047 -25.767663 -33.029137 9.867763 0.000000 0.000000 0.000000 14.885267 6.738762 2.706896 59.051188 3.993438 -6.695814 9.400077 39.056788 5.407933 0.000000 0.000000 0.000000 
0.000207 0.950923 0.000522 -0.329612 -8.026858 -0.299500 6.665489 0.094962 0.859304 -0.026725 0.150446 -4.351600 12.235850 22.442398 22.006059 0.000000 0.000000 0.000000 -4.687407 0.012507 3.642552 1.548253 -0.232876 -3.961092 -16.811643 -30.533420 32.027955 0.000000 0.000000 0.000000 -2.268936 -0.053217 3.728872 5.227046 -0.961548 -22.093778 1.821648 5.047172 29.960471 -2.441377 2.958009 -19.481996 0.000000 0.000000 0.000000 -22.550851 0.543184 -1.379957 -51.297645 -9.364635 -4.966982 -26.945957 -33.515463 10.470114 0.000000 0.000000 0.000000 14.141053 7.292464 2.909489 59.348979 3.761923 -6.887737 9.522012 39.784484 5.555511 0.000000 0.000000 0.000000 
0.000232 0.950907 0.000634 -0.085554 -7.827995 -0.375765 6.256246 0.067781 0.332699 0.228527 0.091720 -3.404830 12.178838 22.392528 21.836584 0.000000 0.000000 0.000000 -4.906632 0.019539 3.794339 1.491316 -0.232971 -4.073082 -16.955143 -30.658670 32.112657 0.000000 0.000000 0.000000 -2.151445 -0.061389 3.874678 5.273213 -1.015018 -21.551135 1.372585 5.009580 29.490928 -2.351435 2.902496 -19.499794 0.000000 0.000000 0.000000 -22.228729 0.547047 -1.411589 -51.638096 -9.485088 -4.861312 -26.953556 -34.300129 10.713064 0.000000 0.000000 0.000000 14.149312 6.901665 2.722376 59.189112 3.797866 -6.799996 10.785196 40.042426 6.047686 0.000000 0.000000 0.000000 
0.000213 0.950950 0.000719 -0.049552 -7.765529 -0.207782 6.238387 0.051262 0.030757 0.192323 0.088263 -3.220013 12.165755 22.378553 21.819328 0.000000 0.000000 0.000000 -4.760099 0.003491 3.908951 1.174488 -0.228667 -4.587839 -16.976893 -30.655480 32.247678 0.000000 0.000000 0.000000 -2.406945 -0.042230 3.506453 5.518315 -1.060435 -21.712268 1.407256 4.875207 29.843476 -2.642225 3.090940 -19.861046 0.000000 0.000000 0.000000 -22.353362 0.927929 -1.608620 -51.750236 -9.613789 -4.856994 -27.506236 -34.025485 10.840122 0.000000 0.000000 0.000000 13.865919 6.931444 2.724033 59.232340 3.662918 -6.906669 10.835745 39.938613 6.040415 0.000000 0.000000 0.000000 
0.000082 0.950806 0.000796 -0.052042 -7.731668 -0.062631 6.301541 0.041075 -0.170933 0.101929 0.094239 -3.145190 12.167066 22.384494 21.773200 0.000000 0.000000 0.000000 -4.756746 0.011372 3.747818 1.195829 -0.229161 -4.561487 -17.024890 -30.708091 32.232967 0.000000 0.000000 0.000000 -2.341198 -0.046002 3.624069 5.527953 -1.059585 -21.723247 1.184202 4.712059 29.723095 -2.430883 2.934589 -20.498851 0.000000 0.000000 0.000000 -22.614950 0.948110 -1.608060 -51.631866 -9.295084 -4.980899 -27.605926 -34.347357 10.990134 0.000000 0.000000 0.000000 14.037612 7.022202 2.742868 59.105784 3.638438 -6.903688 11.075954 39.750934 6.067574 0.000000 0.000000 0.000000 
-0.000104 0.950688 0.000879 -0.159825 -7.743687 0.118094 6.478916 0.035347 -0.319221 0.017684 0.103854 -3.186701 12.190346 22.412760 21.756370 0.000000 0.000000 0.000000 -4.522805 0.000169 3.635989 1.009485 -0.222897 -4.679220 -17.023060 -30.706488 32.245792 0.000000 0.000000 0.000000 -2.355729 -0.044298 3.631911 5.530055 -1.031033 -22.047922 1.189788 4.754314 29.894426 -2.504570 2.991662 -20.561276 0.000000 0.000000 0.000000 -22.753126 0.855972 -1.569189 -51.379345 -8.921485 -5.137606 -28.117151 -34.836988 11.332939 0.000000 0.000000 0.000000 14.150991 7.130969 2.808462 59.189150 3.445281 -7.021169 10.761240 39.427147 5.900483 0.000000 0.000000 0.000000 
-0.000287 0.950693 0.001080 -0.323700 -7.910605 0.244799 6.657505 0.035643 -0.413806 0.026170 0.100944 -3.131705 12.299303 22.532130 21.808905 0.000000 0.000000 0.000000 -4.455951 0.001319 3.572078 1.201599 -0.233935 -4.795674 -16.897518 -30.593749 32.175740 0.000000 0.000000 0.000000 -2.241528 -0.049007 3.644814 5.504529 -1.019986 -22.132318 1.198845 4.840377 29.845163 -2.557356 3.032586 -20.959577 0.000000 0.000000 0.000000 -22.890798 0.934916 -1.624927 -51.220296 -8.776652 -5.183818 -28.221299 -34.826772 11.360541 0.000000 0.000000 0.000000 14.234924 7.307839 2.891509 59.232316 3.299304 -7.093365 10.345882 39.070575 5.683259 0.000000 0.000000 0.000000 
-0.000430 0.950671 0.001393 -0.341012 -7.937976 0.340398 6.727064 0.038380 -0.345097 -0.053496 0.117544 -3.383589 12.307716 22.536788 21.851642 0.000000 0.000000 0.000000 -4.447695 0.006336 3.483016 1.229232 -0.234830 -4.788921 -16.887845 -30.588886 32.157329 0.000000 0.000000 0.000000 -2.272214 -0.046708 3.634428 5.468462 -1.004482 -22.205542 1.209434 5.043468 29.757734 -2.437417 2.984468 -21.005222 0.000000 0.000000 0.000000 -22.735236 0.906961 -1.657127 -51.227302 -8.544337 -5.252184 -28.329430 -34.913299 11.402150 0.000000 0.000000 0.000000 14.325785 7.247330 2.896586 59.204788 2.870585 -7.281215 10.541375 38.991487 5.748183 0.000000 0.000000 0.000000 
-0.000449 0.950695 0.001729 -0.354855 -7.896804 0.299583 6.835518 0.041766 -0.301066 -0.216607 0.132141 -3.355349 12.278361 22.508964 21.796062 0.000000 0.000000 0.000000 -4.565248 0.004786 3.682681 1.343620 -0.242722 -4.904066 -16.477656 -30.190812 31.899572 0.000000 0.000000 0.000000 -2.392039 -0.044184 3.794324 5.473053 -0.981983 -22.475097 1.291640 5.128986 29.926268 -2.266243 2.897975 -21.341162 0.000000 0.000000 0.000000 -22.740917 1.020167 -1.750854 -51.059268 -8.418290 -5.305901 -28.458193 -34.607447 11.328101 0.000000 0.000000 0.000000 14.230329 7.135389 2.867577 59.356649 2.591576 -7.452566 10.872044 38.862592 5.859326 0.000000 0.000000 0.000000 
-0.000336 0.950502 0.001953 -0.357361 -8.132322 0.188259 6.953714 0.049995 -0.298906 -0.449417 0.144184 -3.028394 12.425430 22.684093 21.741860 0.000000 0.000000 0.000000 -4.816133 0.019040 3.864335 1.483041 -0.246550 -4.844370 -15.508887 -29.275027 31.122339 0.000000 0.000000 0.000000 -2.349461 -0.051135 4.059372 5.351969 -0.964870 -22.391518 1.420240 5.339447 29.631023 -2.147314 2.839264 -21.732787 0.000000 0.000000 0.000000 -22.747451 0.945539 -1.738772 -50.896463 -7.986256 -5.429320 -28.165780 -34.265696 11.076096 0.000000 0.000000 0.000000 13.902889 7.256631 2.920038 59.524799 2.202920 -7.616802 11.252933 38.925406 5.994655 0.000000 0.000000 0.000000 
-0.000081 0.950395 0.001961 -0.421228 -8.336998 0.092609 7.037815 0.055558 -0.341426 -0.515852 0.140113 -2.674974 12.559576 22.843315 21.702678 0.000000 0.000000 0.000000 -4.898186 0.024446 3.944438 1.372692 -0.233664 -4.506386 -14.264684 -28.061940 30.021737 0.000000 0.000000 0.000000 -2.358875 -0.056492 4.392189 5.367198 -0.973677 -22.392056 1.468713 5.543631 29.476092 -1.991674 2.762284 -22.110967 0.000000 0.000000 0.000000 -22.790644 0.752217 -1.652286 -50.741742 -7.578189 -5.566434 -27.732212 -33.926103 10.789229 0.000000 0.000000 0.000000 13.933838 7.457872 3.025245 59.433704 1.995625 -7.684516 11.281150 39.057885 6.022617 0.000000 0.000000 0.000000 
0.000229 0.950427 0.001794 -0.463720 -8.707839 0.067768 7.054879 0.063582 -0.337590 -0.524758 0.136067 -2.503932 12.779025 23.082294 21.823962 0.000000 0.000000 0.000000 -5.063049 0.046413 3.883763 1.250945 -0.218194 -4.144149 -12.807391 -26.557127 28.947843 0.000000 0.000000 0.000000 -2.442605 -0.058561 4.863739 5.532855 -0.995547 -22.706352 1.482077 5.860402 29.447851 -1.863860 2.709630 -22.568955 0.000000 0.000000 0.000000 -23.009703 0.522954 -1.556885 -50.472223 -7.292306 -5.652035 -27.044208 -33.483446 10.382228 0.000000 0.000000 0.000000 13.841961 7.746136 3.172202 59.312699 1.867525 -7.721776 11.670942 39.273299 6.193578 0.000000 0.000000 0.000000 
0.000485 0.950387 0.001523 -0.467891 -8.795598 0.129030 7.108220 0.062517 -0.423234 -0.641916 0.147531 -2.471624 12.837915 23.147818 21.838118 0.000000 0.000000 0.000000 -5.101073 0.049544 3.934631 1.116481 -0.211968 -4.178546 -12.105540 -25.807614 28.285166 0.000000 0.000000 0.000000 -2.468160 -0.058519 5.023099 5.540610 -1.011234 -22.560217 1.428494 5.967698 29.238223 -1.736885 2.646040 -22.889052 0.000000 0.000000 0.000000 -22.958512 0.383956 -1.491834 -50.416870 -7.383686 -5.587278 -26.395403 -33.115598 10.031148 0.000000 0.000000 0.000000 13.716753 7.929711 3.259962 59.201556 2.181740 -7.523528 11.660639 39.185005 6.163191 0.000000 0.000000 0.000000 
0.000569 0.950393 0.001230 -0.493065 -8.706905 0.095233 7.148631 0.066050 -0.311035 -0.661429 0.155122 -2.665484 12.773474 23.076601 21.817909 0.000000 0.000000 0.000000 -5.027030 0.038980 3.996253 0.980102 -0.205225 -4.169822 -11.963264 -25.639037 28.205107 0.000000 0.000000 0.000000 -2.612388 -0.053784 5.312304 5.675340 -1.039941 -22.584417 1.339003 5.957288 29.061979 -1.380877 2.443118 -23.387263 0.000000 0.000000 0.000000 -23.190483 0.331576 -1.503496 -50.295219 -7.377302 -5.558074 -26.092829 -32.942241 9.863111 0.000000 0.000000 0.000000 13.726344 8.122940 3.357617 59.086301 2.287173 -7.432509 11.451970 39.050622 6.056444 0.000000 0.000000 0.000000 
